<svg id="screenshot" viewBox="-7.094395186868496e-7 -0.0000037270094708219403 11.34375167551616 12.00000153764978" width="11.34375167551616" height="12.00000153764978" version="1.1" xmlns:xlink="http://www.w3.org/1999/xlink" xmlns="http://www.w3.org/2000/svg"><g id="shape-ed6f6ed0-b728-11eb-b61b-a52271718b9f"><g width="16.0px" id="SVGRoot" version="1.1" height="16.0px"><g id="shape-ed6f6ed1-b728-11eb-b61b-a52271718b9f"><g id="layer1"><g id="shape-ed6f6ed2-b728-11eb-b61b-a52271718b9f"><g id="surface1"><g id="shape-ed6f6ed3-b728-11eb-b61b-a52271718b9f"><clipPath id="clip-64d78480-b729-11eb-8fa6-7bd277ee2ed5"><path id="path29" class="ColorScheme-Text" d="m4.984375128318561,6.298108701230376e-8C2.140625128318561,0.4957711901230937,1.2831856111006346e-7,2.966817911418616,1.2831856111006346e-7,5.953154048495378C1.2831856111006346e-7,9.302535750748063,2.6953131283186167,11.999997018697115,6.046875128318561,11.999997018697115C8.33203112831859,11.999997018697115,10.31640612831859,10.743003640481106,11.343750128318561,8.884838777512357C11.00390612831859,8.943390645382635,10.64453112831859,8.974620306945155,10.28515612831859,8.974620306945155C6.929687128318619,8.974620306945155,4.230469128318532,6.281062496854133,4.230469128318532,2.927777336743361C4.230469128318532,1.8620653857603884,4.507813128318617,0.862716215760372,4.984375128318561,-0.0000029350663908189745ZM4.984375128318561,6.298108701230376e-8" style="fill: white; fill-opacity: 1;"/></clipPath><path id="path29" class="ColorScheme-Text" d="m4.984375128318561,6.298108701230376e-8C2.140625128318561,0.4957711901230937,1.2831856111006346e-7,2.966817911418616,1.2831856111006346e-7,5.953154048495378C1.2831856111006346e-7,9.302535750748063,2.6953131283186167,11.999997018697115,6.046875128318561,11.999997018697115C8.33203112831859,11.999997018697115,10.31640612831859,10.743003640481106,11.343750128318561,8.884838777512357C11.00390612831859,8.943390645382635,10.64453112831859,8.974620306945155,10.28515612831859,8.974620306945155C6.929687128318619,8.974620306945155,4.230469128318532,6.281062496854133,4.230469128318532,2.927777336743361C4.230469128318532,1.8620653857603884,4.507813128318617,0.862716215760372,4.984375128318561,-0.0000029350663908189745ZM4.984375128318561,6.298108701230376e-8" clip-path="url('#clip-64d78480-b729-11eb-8fa6-7bd277ee2ed5')" style="fill: rgb(66, 66, 66); fill-opacity: 0; stroke-width: 2; stroke: rgb(66, 66, 66); stroke-opacity: 1;"/></g></g></g></g></g></g></g></svg>