<svg id="screenshot" viewBox="-0.0000011431907296355348 -0.0000010949644320135121 16.00000228638146 16.00000218992892" width="16.00000228638146" height="16.00000218992892" version="1.1" xmlns:xlink="http://www.w3.org/1999/xlink" xmlns="http://www.w3.org/2000/svg"><g id="shape-96d06ce0-b823-11eb-8153-ddd42e3c7281"><g width="16.00000228638146" id="screenshot" version="1.1" height="16.00000218992892"><g id="shape-96d0bb00-b823-11eb-8153-ddd42e3c7281"><g id="shape-c3539190-b72c-11eb-b0e2-4381912e8cbf"><g id="shape-96d0e210-b823-11eb-8153-ddd42e3c7281"><g id="g11" width="16" height="16"><g id="shape-96d10920-b823-11eb-8153-ddd42e3c7281"><g id="shape-cca595e0-b72c-11eb-b0e2-4381912e8cbf"><g id="shape-96d1cc70-b823-11eb-8153-ddd42e3c7281"><rect width="16" height="16" x="0.33162578228393613" id="rect2" transform="matrix(0.9999999999999999,-1.7453292519943295e-8,1.7453292519943295e-8,0.9999999999999999,-1.3957006750331402e-7,1.4541430282122292e-7)" style="fill: rgb(177, 178, 181); fill-opacity: 0.02;" ry="0" fill="none" rx="0" y="-0.0032241247257616124"/></g></g></g><g id="shape-96d21a90-b823-11eb-8153-ddd42e3c7281"><g id="shape-c355db80-b72c-11eb-b0e2-4381912e8cbf"><g id="shape-96d4d9b0-b823-11eb-8153-ddd42e3c7281"><defs><clipPath id="96cdcd70-b826-11eb-ac30-3f9690972a4c-clip-50dec480-b72d-11eb-8ce9-85f6643ae54c" transform="matrix(1,0,0,1,-2.6180002166142913e-8,-0.003224118937851017)"><path id="path5" d="M7.568453411494147,13.974500000000006C7.513213411494121,13.970400000000012,7.327383411494111,13.94720000000001,7.155513411494098,13.922899999999998C4.744983411494104,13.582600000000014,2.77954341149416,11.819199999999995,2.16734341149413,9.44740999999999C2.030043411494148,8.915490000000005,2.0008534114941767,8.658459999999991,2.0000234114941122,7.974199999999996C1.9991834114941867,7.288049999999998,2.0204434114941705,7.081179999999989,2.1456734114941582,6.556780000000003C2.6188934114941276,4.5751300000000015,4.04661341149415,2.970159999999993,5.947053411494153,2.283459999999991C6.2263034114940865,2.182559999999995,6.632803411494137,2.068720000000013,6.827593411494149,2.0368899999999996L6.923783411494128,2.021160000000009L6.824873411494082,2.21866C6.529663411494084,2.808150000000012,6.31237341149415,3.536200000000008,6.2263334114941244,4.224199999999996C6.189993411494129,4.514690000000002,6.189753411494166,5.34545,6.225923411494136,5.630449999999996C6.349823411494185,6.606840000000005,6.6801434114941,7.508669999999995,7.1978234114941415,8.283860000000004C8.156073411494162,9.718770000000006,9.610053411494164,10.641999999999996,11.351893411494189,10.921500000000009C11.703193411494112,10.977900000000005,12.550793411494169,10.990000000000009,12.944993411494124,10.944400000000002C13.121293411494094,10.924000000000007,13.269093411494168,10.910699999999991,13.273293411494137,10.914899999999989C13.286393411494146,10.927999999999997,13.004993411494183,11.365700000000004,12.85559341149417,11.564600000000013C11.814993411494129,12.950500000000005,10.24459341149418,13.819999999999993,8.517113411494165,13.9666C8.26712341149414,13.987799999999993,7.798873411494128,13.991700000000009,7.568453411494147,13.974500000000006ZL7.568453411494147,13.974500000000006ZZ" style="fill: white;"/></clipPath></defs><path class="" id="path8" clip-path="url('#96cdcd70-b826-11eb-ac30-3f9690972a4c-clip-50dec480-b72d-11eb-8ce9-85f6643ae54c')" d="M7.568453385314115,13.971275881062184C7.513213385313975,13.96717588106219,7.327383385314079,13.943975881062158,7.155513385313952,13.919675881062176C4.744983385314072,13.579375881062163,2.7795433853141276,11.815975881062172,2.1673433853140978,9.44418588106214C2.030043385314002,8.912265881062126,2.000853385314258,8.65523588106214,2.00002338531408,7.970975881062145C1.9991833853141543,7.284825881062147,2.020443385314138,7.0779558810621666,2.1456733853142396,6.553555881062152C2.618893385314095,4.5719058810621505,4.046613385314231,2.9669358810621134,5.9470533853141205,2.28023588106214C6.226303385314168,2.1793358810621157,6.632803385314219,2.0654958810621338,6.8275933853142305,2.03366588106212L6.923783385313982,2.017935881062158L6.824873385314049,2.215435881062149C6.529663385314052,2.804925881062161,6.312373385314004,3.532975881062157,6.226333385314092,4.220975881062145C6.18999338531421,4.511465881062122,6.189753385314134,5.342225881062177,6.225923385314218,5.627225881062145C6.3498233853142665,6.603615881062183,6.680143385314068,7.505445881062144,7.197823385314223,8.280635881062153C8.15607338531413,9.715545881062155,9.610053385314131,10.638775881062145,11.35189338531427,10.918275881062186C11.70319338531408,10.974675881062126,12.550793385314137,10.986775881062158,12.944993385314092,10.941175881062122C13.121293385313948,10.920775881062127,13.269093385314136,10.907475881062169,13.273293385313991,10.911675881062138C13.286393385314113,10.924775881062146,13.004993385314265,11.362475881062153,12.855593385314023,11.56137588106219C11.81499338531421,12.947275881062183,10.244593385314147,13.816775881062142,8.517113385314133,13.96337588106212C8.267123385314108,13.984575881062142,7.798873385313982,13.988475881062186,7.568453385314115,13.971275881062184ZZL7.568453385314115,13.971275881062184ZZZ" style="stroke-opacity: 1; fill: rgb(238, 238, 238); fill-opacity: 1;"/></g></g></g></g></g></g></g></g></g></svg>