<?xml version="1.0" encoding="UTF-8" standalone="no"?>
<svg
   xmlns:dc="http://purl.org/dc/elements/1.1/"
   xmlns:cc="http://creativecommons.org/ns#"
   xmlns:rdf="http://www.w3.org/1999/02/22-rdf-syntax-ns#"
   xmlns:svg="http://www.w3.org/2000/svg"
   xmlns="http://www.w3.org/2000/svg"
   xmlns:sodipodi="http://sodipodi.sourceforge.net/DTD/sodipodi-0.dtd"
   xmlns:inkscape="http://www.inkscape.org/namespaces/inkscape"
   width="16"
   height="16"
   version="1.1"
   viewBox="-1.1432e-6 -1.095e-6 16 16"
   id="svg17"
   sodipodi:docname="nightthemeswitcher-ondemand-on-symbolic.svg"
   inkscape:version="1.0.2 (e86c870879, 2021-01-15)">
  <metadata
     id="metadata23">
    <rdf:RDF>
      <cc:Work
         rdf:about="">
        <dc:format>image/svg+xml</dc:format>
        <dc:type
           rdf:resource="http://purl.org/dc/dcmitype/StillImage" />
      </cc:Work>
    </rdf:RDF>
  </metadata>
  <defs
     id="defs21" />
  <sodipodi:namedview
     pagecolor="#ffffff"
     bordercolor="#666666"
     borderopacity="1"
     objecttolerance="10"
     gridtolerance="10"
     guidetolerance="10"
     inkscape:pageopacity="0"
     inkscape:pageshadow="2"
     inkscape:window-width="1920"
     inkscape:window-height="1015"
     id="namedview19"
     showgrid="false"
     inkscape:zoom="50.75"
     inkscape:cx="8"
     inkscape:cy="8"
     inkscape:window-x="0"
     inkscape:window-y="0"
     inkscape:window-maximized="1"
     inkscape:current-layer="g13" />
  <g
     transform="translate(-.33163 .003223)"
     id="g15">
    <g
       width="16.00000228638146"
       height="16.00000218992892"
       version="1.1"
       id="g13">
      <g
         width="16"
         height="16"
         id="g11">
        <defs
           id="defs7">
          <clipPath
             id="96cdcd70-b826-11eb-ac30-3f9690972a4c-clip-50dec480-b72d-11eb-8ce9-85f6643ae54c"
             transform="translate(-2.618e-8 -.0032241)">
            <path
               d="m7.5685 13.974c-0.05524-0.0041-0.24107-0.0273-0.41294-0.0516-2.4105-0.3403-4.376-2.1037-4.9882-4.4755-0.1373-0.53192-0.16649-0.78895-0.16732-1.4732-8.4e-4 -0.68615 0.02042-0.89302 0.14565-1.4174 0.47322-1.9816 1.9009-3.5866 3.8014-4.2733 0.27925-0.1009 0.68575-0.21474 0.88054-0.24657l0.09619-0.01573-0.09891 0.1975c-0.29521 0.58949-0.5125 1.3175-0.59854 2.0055-0.03634 0.29049-0.03658 1.1212-4.1e-4 1.4062 0.1239 0.97639 0.45422 1.8782 0.9719 2.6534 0.95825 1.4349 2.4122 2.3581 4.1541 2.6376 0.3513 0.0564 1.1989 0.0685 1.5931 0.0229 0.1763-0.0204 0.3241-0.0337 0.3283-0.0295 0.0131 0.0131-0.2683 0.4508-0.4177 0.6497-1.0406 1.3859-2.611 2.2554-4.3385 2.402-0.24999 0.0212-0.71824 0.0251-0.94866 0.0079z"
               style="fill:#fff"
               id="path4" />
          </clipPath>
        </defs>
        <path
           class=""
           d="m7.5685 13.971c-0.05524-0.0041-0.24107-0.0273-0.41294-0.0516-2.4105-0.3403-4.376-2.1037-4.9882-4.4755-0.1373-0.53192-0.16649-0.78895-0.16732-1.4732-8.4e-4 -0.68615 0.02042-0.89302 0.14565-1.4174 0.47322-1.9816 1.9009-3.5866 3.8014-4.2733 0.27925-0.1009 0.68575-0.21474 0.88054-0.24657l0.09619-0.01573-0.09891 0.1975c-0.29521 0.58949-0.5125 1.3175-0.59854 2.0055-0.03634 0.29049-0.03658 1.1212-4.1e-4 1.4062 0.1239 0.97639 0.45422 1.8782 0.9719 2.6534 0.95825 1.4349 2.4122 2.3581 4.1541 2.6376 0.3513 0.0564 1.1989 0.0685 1.5931 0.0229 0.1763-0.0204 0.3241-0.0337 0.3283-0.0295 0.0131 0.0131-0.2683 0.4508-0.4177 0.6497-1.0406 1.3859-2.611 2.2554-4.3385 2.402-0.24999 0.0212-0.71824 0.0251-0.94866 0.0079z"
           clip-path="url(#96cdcd70-b826-11eb-ac30-3f9690972a4c-clip-50dec480-b72d-11eb-8ce9-85f6643ae54c)"
           style="fill:#eee"
           id="path9" />
      </g>
    </g>
  </g>
</svg>
