<?xml version="1.0" encoding="UTF-8" standalone="no"?>
<svg
   xmlns:dc="http://purl.org/dc/elements/1.1/"
   xmlns:cc="http://creativecommons.org/ns#"
   xmlns:rdf="http://www.w3.org/1999/02/22-rdf-syntax-ns#"
   xmlns:svg="http://www.w3.org/2000/svg"
   xmlns="http://www.w3.org/2000/svg"
   xmlns:sodipodi="http://sodipodi.sourceforge.net/DTD/sodipodi-0.dtd"
   xmlns:inkscape="http://www.inkscape.org/namespaces/inkscape"
   id="screenshot"
   viewBox="-0.0000011170106972713256 0.003223023973390582 16.00000228638146 16.00000218992892"
   width="16.00000228638146"
   height="16.00000218992892"
   version="1.1"
   sodipodi:docname="nightthemeswitcher-ondemand-off-symbolic.svg"
   inkscape:version="1.0.2 (e86c870879, 2021-01-15)">
  <metadata
     id="metadata19">
    <rdf:RDF>
      <cc:Work
         rdf:about="">
        <dc:format>image/svg+xml</dc:format>
        <dc:type
           rdf:resource="http://purl.org/dc/dcmitype/StillImage" />
      </cc:Work>
    </rdf:RDF>
  </metadata>
  <defs
     id="defs17" />
  <sodipodi:namedview
     pagecolor="#ffffff"
     bordercolor="#666666"
     borderopacity="1"
     objecttolerance="10"
     gridtolerance="10"
     guidetolerance="10"
     inkscape:pageopacity="0"
     inkscape:pageshadow="2"
     inkscape:window-width="1920"
     inkscape:window-height="1015"
     id="namedview15"
     showgrid="false"
     inkscape:zoom="50.749994"
     inkscape:cx="4.7290646"
     inkscape:cy="8.000001"
     inkscape:window-x="0"
     inkscape:window-y="0"
     inkscape:window-maximized="1"
     inkscape:current-layer="shape-c355db80-b72c-11eb-b0e2-4381912e8cbf"
     inkscape:document-rotation="0" />
  <g
     id="shape-c3539190-b72c-11eb-b0e2-4381912e8cbf">
    <g
       fill="none"
       height="16"
       width="16"
       id="g11">
      <g
         id="shape-cca595e0-b72c-11eb-b0e2-4381912e8cbf">
        <rect
           rx="0"
           ry="0"
           x="0.3316258085202435"
           y="0"
           transform="matrix(0.9999999999999999,-1.7453292519943298e-8,1.7453292519943295e-8,1,-1.3968261036723106e-7,1.3962634071162938e-7)"
           width="16"
           height="16"
           style="fill: rgb(177, 178, 181); fill-opacity: 0;"
           id="rect2" />
      </g>
      <g
         id="shape-c355db80-b72c-11eb-b0e2-4381912e8cbf">
        <clipPath
           id="clip-50dec480-b72d-11eb-8ce9-85f6643ae54c">
          <path
             d="M7.568453411494147,13.974500000000006C7.513213411494121,13.970400000000012,7.327383411494111,13.94720000000001,7.155513411494098,13.922899999999998C4.744983411494104,13.582600000000014,2.77954341149416,11.819199999999995,2.16734341149413,9.44740999999999C2.030043411494148,8.915490000000005,2.0008534114941767,8.658459999999991,2.0000234114941122,7.974199999999996C1.9991834114941867,7.288049999999998,2.0204434114941705,7.081179999999989,2.1456734114941582,6.556780000000003C2.6188934114941276,4.5751300000000015,4.04661341149415,2.970159999999993,5.947053411494153,2.283459999999991C6.2263034114940865,2.182559999999995,6.632803411494137,2.068720000000013,6.827593411494149,2.0368899999999996L6.923783411494128,2.021160000000009L6.824873411494082,2.21866C6.529663411494084,2.808150000000012,6.31237341149415,3.536200000000008,6.2263334114941244,4.224199999999996C6.189993411494129,4.514690000000002,6.189753411494166,5.34545,6.225923411494136,5.630449999999996C6.349823411494185,6.606840000000005,6.6801434114941,7.508669999999995,7.1978234114941415,8.283860000000004C8.156073411494162,9.718770000000006,9.610053411494164,10.641999999999996,11.351893411494189,10.921500000000009C11.703193411494112,10.977900000000005,12.550793411494169,10.990000000000009,12.944993411494124,10.944400000000002C13.121293411494094,10.924000000000007,13.269093411494168,10.910699999999991,13.273293411494137,10.914899999999989C13.286393411494146,10.927999999999997,13.004993411494183,11.365700000000004,12.85559341149417,11.564600000000013C11.814993411494129,12.950500000000005,10.24459341149418,13.819999999999993,8.517113411494165,13.9666C8.26712341149414,13.987799999999993,7.798873411494128,13.991700000000009,7.568453411494147,13.974500000000006ZL7.568453411494147,13.974500000000006ZZ"
             style="fill: white; fill-opacity: currentColor;"
             id="path5" />
        </clipPath>
        <path
           d="M7.568453411494147,13.974500000000006C7.513213411494121,13.970400000000012,7.327383411494111,13.94720000000001,7.155513411494098,13.922899999999998C4.744983411494104,13.582600000000014,2.77954341149416,11.819199999999995,2.16734341149413,9.44740999999999C2.030043411494148,8.915490000000005,2.0008534114941767,8.658459999999991,2.0000234114941122,7.974199999999996C1.9991834114941867,7.288049999999998,2.0204434114941705,7.081179999999989,2.1456734114941582,6.556780000000003C2.6188934114941276,4.5751300000000015,4.04661341149415,2.970159999999993,5.947053411494153,2.283459999999991C6.2263034114940865,2.182559999999995,6.632803411494137,2.068720000000013,6.827593411494149,2.0368899999999996L6.923783411494128,2.021160000000009L6.824873411494082,2.21866C6.529663411494084,2.808150000000012,6.31237341149415,3.536200000000008,6.2263334114941244,4.224199999999996C6.189993411494129,4.514690000000002,6.189753411494166,5.34545,6.225923411494136,5.630449999999996C6.349823411494185,6.606840000000005,6.6801434114941,7.508669999999995,7.1978234114941415,8.283860000000004C8.156073411494162,9.718770000000006,9.610053411494164,10.641999999999996,11.351893411494189,10.921500000000009C11.703193411494112,10.977900000000005,12.550793411494169,10.990000000000009,12.944993411494124,10.944400000000002C13.121293411494094,10.924000000000007,13.269093411494168,10.910699999999991,13.273293411494137,10.914899999999989C13.286393411494146,10.927999999999997,13.004993411494183,11.365700000000004,12.85559341149417,11.564600000000013C11.814993411494129,12.950500000000005,10.24459341149418,13.819999999999993,8.517113411494165,13.9666C8.26712341149414,13.987799999999993,7.798873411494128,13.991700000000009,7.568453411494147,13.974500000000006ZL7.568453411494147,13.974500000000006ZZ"
           clip-path="url('#clip-50dec480-b72d-11eb-8ce9-85f6643ae54c')"
           style="fill:rgb(66, 66, 66);fill-opacity:0;stroke-width:2;stroke:#eeeeee;stroke-opacity:1"
           id="path8" />
      </g>
    </g>
  </g>
</svg>
